<?xml version="1.0" encoding="UTF-8"?>
<svg id="Layer_1" data-name="Layer 1" xmlns="http://www.w3.org/2000/svg" version="1.1" viewBox="0 0 1200 600">
  <defs>
    <style>
      .cls-1 {
        fill: none;
        stroke: red;
        stroke-miterlimit: 10;
        stroke-width: 2.5px;
      }

      .cls-2 {
        fill: #000;
        font-family: Helvetica-Bold, Helvetica;
        font-size: 48.8px;
        font-weight: 700;
      }
    </style>
  </defs>
  <text class="cls-2" transform="translate(538.5 201.4) scale(1 1)"><tspan x="0" y="0">Hack Brawlr</tspan></text>
  <path class="cls-1" d="M667.3,205c4,0,4,3,7.9,3s4-3,7.9-3,4,3,7.9,3,4-3,7.9-3,4,3,7.9,3,4-3,7.9-3,4,3,7.9,3,4-3,7.9-3,4,3,7.9,3,4-3,7.9-3,4,3,7.9,3,4-3,7.9-3,4,3,7.9,3,4-3,7.9-3,4,3,7.9,3,4-3,7.9-3,4,3,7.9,3,4-3,7.9-3,4,3,7.9,3"/>
</svg>